# xmcd CD database file
#
# Track frame offsets:
#	150
#	24332
#	52349
#	83947
#	103230
#	127236
#	160274
#	199258
#	218761
#	246733
#	270335
#	296133
#
# Disc length: 4260 seconds
#
# Revision: 0
# Processed by: cddbd v1.5.2PL0 Copyright (c) Steve Scherf et al.
# Submitted via: CDex 1.51
#
DISCID=c010a20c
DTITLE=Scott Martin - Organic Voodoo Juice
DYEAR=2008
DGENRE=Jazz
TTITLE0=Voodoo Juice
TTITLE1=More Today Than Yesterday
TTITLE2=Flim Flam
TTITLE3=Dave, Doc, and Milt
TTITLE4=Beginning of the End
TTITLE5=Joseito
TTITLE6=All Things Pass
TTITLE7=Love Potion #9
TTITLE8=Bernie`s Tune
TTITLE9=Jello on Springs
TTITLE10=Pork Choppin`
TTITLE11=Soul with a Capital S
EXTD=YEAR: 2008
EXTT0=
EXTT1=
EXTT2=
EXTT3=
EXTT4=
EXTT5=
EXTT6=
EXTT7=
EXTT8=
EXTT9=
EXTT10=
EXTT11=
PLAYORDER=
